<mxfile host="app.diagrams.net" modified="2023-09-19T06:12:37.064Z" agent="Mozilla/5.0 (Windows NT 10.0; Win64; x64) AppleWebKit/537.36 (KHTML, like Gecko) Chrome/117.0.0.0 Safari/537.36 Edg/117.0.2045.31" etag="4QDGisn8PEaxyiYAgZvN" version="21.7.5" type="device">
  <diagram name="Страница — 1" id="f6hGEiqehWqJjm9D5Dt2">
    <mxGraphModel dx="1379" dy="793" grid="1" gridSize="10" guides="1" tooltips="1" connect="1" arrows="1" fold="1" page="1" pageScale="1" pageWidth="827" pageHeight="1169" math="0" shadow="0">
      <root>
        <mxCell id="0" />
        <mxCell id="1" parent="0" />
        <mxCell id="mOeBLPz5S-SCBiEGiSE0-183" value="Автор анкеты" style="swimlane;childLayout=stackLayout;horizontal=1;startSize=50;horizontalStack=0;rounded=1;fontSize=14;fontStyle=0;strokeWidth=2;resizeParent=0;resizeLast=1;shadow=0;dashed=0;align=center;arcSize=4;whiteSpace=wrap;html=1;" parent="1" vertex="1">
          <mxGeometry x="280" y="20" width="160" height="120" as="geometry" />
        </mxCell>
        <mxCell id="mOeBLPz5S-SCBiEGiSE0-184" value="&lt;b&gt;Идентификатор&lt;/b&gt;&lt;br&gt;Имя" style="align=center;strokeColor=none;fillColor=none;spacingLeft=4;fontSize=12;verticalAlign=middle;resizable=0;rotatable=0;part=1;html=1;" parent="mOeBLPz5S-SCBiEGiSE0-183" vertex="1">
          <mxGeometry y="50" width="160" height="70" as="geometry" />
        </mxCell>
        <mxCell id="mOeBLPz5S-SCBiEGiSE0-185" value="" style="fontSize=12;html=1;endArrow=ERoneToMany;startArrow=ERzeroToOne;rounded=0;exitX=0.5;exitY=1;exitDx=0;exitDy=0;entryX=0.5;entryY=0;entryDx=0;entryDy=0;" parent="1" source="mOeBLPz5S-SCBiEGiSE0-184" target="mOeBLPz5S-SCBiEGiSE0-186" edge="1">
          <mxGeometry width="100" height="100" relative="1" as="geometry">
            <mxPoint x="490" y="550" as="sourcePoint" />
            <mxPoint x="600" y="480" as="targetPoint" />
          </mxGeometry>
        </mxCell>
        <mxCell id="mOeBLPz5S-SCBiEGiSE0-186" value="Анкета" style="swimlane;childLayout=stackLayout;horizontal=1;startSize=50;horizontalStack=0;rounded=1;fontSize=14;fontStyle=0;strokeWidth=2;resizeParent=0;resizeLast=1;shadow=0;dashed=0;align=center;arcSize=4;whiteSpace=wrap;html=1;" parent="1" vertex="1">
          <mxGeometry x="280" y="220" width="160" height="120" as="geometry" />
        </mxCell>
        <mxCell id="mOeBLPz5S-SCBiEGiSE0-223" value="&lt;b style=&quot;border-color: var(--border-color); text-align: left;&quot;&gt;Идентификатор&lt;/b&gt;&lt;br style=&quot;border-color: var(--border-color); text-align: left;&quot;&gt;Название&lt;br style=&quot;border-color: var(--border-color); text-align: left;&quot;&gt;&lt;span style=&quot;text-align: left;&quot;&gt;Вопрос&lt;br&gt;Со множеством ответов&lt;br&gt;&lt;/span&gt;" style="text;html=1;strokeColor=none;fillColor=none;align=center;verticalAlign=middle;whiteSpace=wrap;rounded=0;" parent="mOeBLPz5S-SCBiEGiSE0-186" vertex="1">
          <mxGeometry y="50" width="160" height="70" as="geometry" />
        </mxCell>
        <mxCell id="mOeBLPz5S-SCBiEGiSE0-190" value="Вариант ответа" style="swimlane;childLayout=stackLayout;horizontal=1;startSize=50;horizontalStack=0;rounded=1;fontSize=14;fontStyle=0;strokeWidth=2;resizeParent=0;resizeLast=1;shadow=0;dashed=0;align=center;arcSize=4;whiteSpace=wrap;html=1;" parent="1" vertex="1">
          <mxGeometry x="280" y="470" width="160" height="120" as="geometry" />
        </mxCell>
        <mxCell id="mOeBLPz5S-SCBiEGiSE0-225" value="&lt;span style=&quot;border-color: var(--border-color); text-align: left;&quot;&gt;&lt;b&gt;Идентификатор&lt;/b&gt;&lt;br&gt;Текст&lt;br&gt;&lt;/span&gt;" style="text;html=1;strokeColor=none;fillColor=none;align=center;verticalAlign=middle;whiteSpace=wrap;rounded=0;" parent="mOeBLPz5S-SCBiEGiSE0-190" vertex="1">
          <mxGeometry y="50" width="160" height="70" as="geometry" />
        </mxCell>
        <mxCell id="mOeBLPz5S-SCBiEGiSE0-194" value="Опрашиваемый" style="swimlane;childLayout=stackLayout;horizontal=1;startSize=50;horizontalStack=0;rounded=1;fontSize=14;fontStyle=0;strokeWidth=2;resizeParent=0;resizeLast=1;shadow=0;dashed=0;align=center;arcSize=4;whiteSpace=wrap;html=1;" parent="1" vertex="1">
          <mxGeometry x="580" y="680" width="160" height="150" as="geometry" />
        </mxCell>
        <mxCell id="mOeBLPz5S-SCBiEGiSE0-227" value="&lt;span style=&quot;border-color: var(--border-color); text-align: left;&quot;&gt;&lt;b&gt;Идентификатор&lt;/b&gt;&lt;br&gt;Возраст&lt;br&gt;Пол&lt;br&gt;Страна&lt;br&gt;Семейное положение&lt;br&gt;&lt;/span&gt;" style="text;html=1;strokeColor=none;fillColor=none;align=center;verticalAlign=middle;whiteSpace=wrap;rounded=0;" parent="mOeBLPz5S-SCBiEGiSE0-194" vertex="1">
          <mxGeometry y="50" width="160" height="100" as="geometry" />
        </mxCell>
        <mxCell id="mOeBLPz5S-SCBiEGiSE0-201" value="" style="fontSize=12;html=1;endArrow=ERoneToMany;startArrow=ERmandOne;rounded=0;exitX=0.5;exitY=1;exitDx=0;exitDy=0;entryX=0.5;entryY=0;entryDx=0;entryDy=0;" parent="1" source="mOeBLPz5S-SCBiEGiSE0-223" target="mOeBLPz5S-SCBiEGiSE0-190" edge="1">
          <mxGeometry width="100" height="100" relative="1" as="geometry">
            <mxPoint x="360" y="330" as="sourcePoint" />
            <mxPoint x="590" y="310" as="targetPoint" />
          </mxGeometry>
        </mxCell>
        <mxCell id="mOeBLPz5S-SCBiEGiSE0-206" value="Выбор" style="swimlane;childLayout=stackLayout;horizontal=1;startSize=50;horizontalStack=0;rounded=1;fontSize=14;fontStyle=0;strokeWidth=2;resizeParent=0;resizeLast=1;shadow=0;dashed=0;align=center;arcSize=4;whiteSpace=wrap;html=1;" parent="1" vertex="1">
          <mxGeometry x="580" y="477" width="160" height="120" as="geometry" />
        </mxCell>
        <mxCell id="mOeBLPz5S-SCBiEGiSE0-226" value="&lt;b style=&quot;border-color: var(--border-color); text-align: left;&quot;&gt;Идентификатор&lt;/b&gt;" style="text;html=1;strokeColor=none;fillColor=none;align=center;verticalAlign=middle;whiteSpace=wrap;rounded=0;" parent="mOeBLPz5S-SCBiEGiSE0-206" vertex="1">
          <mxGeometry y="50" width="160" height="70" as="geometry" />
        </mxCell>
        <mxCell id="mOeBLPz5S-SCBiEGiSE0-208" value="" style="edgeStyle=orthogonalEdgeStyle;fontSize=12;html=1;endArrow=ERzeroToMany;startArrow=ERmandOne;rounded=0;exitX=0.75;exitY=1;exitDx=0;exitDy=0;entryX=0.25;entryY=0;entryDx=0;entryDy=0;endFill=0;" parent="1" source="mOeBLPz5S-SCBiEGiSE0-223" target="mOeBLPz5S-SCBiEGiSE0-206" edge="1">
          <mxGeometry width="100" height="100" relative="1" as="geometry">
            <mxPoint x="400" y="330" as="sourcePoint" />
            <mxPoint x="720" y="350" as="targetPoint" />
          </mxGeometry>
        </mxCell>
        <mxCell id="mOeBLPz5S-SCBiEGiSE0-209" value="" style="edgeStyle=orthogonalEdgeStyle;fontSize=12;html=1;endArrow=ERzeroToMany;startArrow=ERmandOne;rounded=0;exitX=0.5;exitY=0;exitDx=0;exitDy=0;entryX=0.5;entryY=1;entryDx=0;entryDy=0;" parent="1" source="mOeBLPz5S-SCBiEGiSE0-194" target="mOeBLPz5S-SCBiEGiSE0-226" edge="1">
          <mxGeometry width="100" height="100" relative="1" as="geometry">
            <mxPoint x="350" y="740" as="sourcePoint" />
            <mxPoint x="550" y="590" as="targetPoint" />
          </mxGeometry>
        </mxCell>
        <mxCell id="mOeBLPz5S-SCBiEGiSE0-210" value="" style="edgeStyle=entityRelationEdgeStyle;fontSize=12;html=1;endArrow=ERzeroToMany;startArrow=ERoneToMany;rounded=0;exitX=1;exitY=0.25;exitDx=0;exitDy=0;entryX=0;entryY=0.5;entryDx=0;entryDy=0;endFill=0;" parent="1" target="mOeBLPz5S-SCBiEGiSE0-206" edge="1">
          <mxGeometry width="100" height="100" relative="1" as="geometry">
            <mxPoint x="440" y="537.5" as="sourcePoint" />
            <mxPoint x="510" y="538" as="targetPoint" />
          </mxGeometry>
        </mxCell>
        <mxCell id="UIpKedmihriB20lezXgJ-1" value="Создана" style="text;html=1;strokeColor=none;fillColor=none;align=center;verticalAlign=middle;whiteSpace=wrap;rounded=0;" parent="1" vertex="1">
          <mxGeometry x="360" y="140" width="80" height="30" as="geometry" />
        </mxCell>
        <mxCell id="UIpKedmihriB20lezXgJ-2" value="Создал" style="text;html=1;strokeColor=none;fillColor=none;align=center;verticalAlign=middle;whiteSpace=wrap;rounded=0;" parent="1" vertex="1">
          <mxGeometry x="370" y="180" width="60" height="30" as="geometry" />
        </mxCell>
        <mxCell id="UIpKedmihriB20lezXgJ-6" value="Принадлежит" style="text;html=1;strokeColor=none;fillColor=none;align=center;verticalAlign=middle;whiteSpace=wrap;rounded=0;" parent="1" vertex="1">
          <mxGeometry x="420" y="350" width="60" height="30" as="geometry" />
        </mxCell>
        <mxCell id="UIpKedmihriB20lezXgJ-7" value="Содержит" style="text;html=1;strokeColor=none;fillColor=none;align=center;verticalAlign=middle;whiteSpace=wrap;rounded=0;" parent="1" vertex="1">
          <mxGeometry x="570" y="430" width="60" height="30" as="geometry" />
        </mxCell>
        <mxCell id="UIpKedmihriB20lezXgJ-8" value="Содержит" style="text;html=1;strokeColor=none;fillColor=none;align=center;verticalAlign=middle;whiteSpace=wrap;rounded=0;" parent="1" vertex="1">
          <mxGeometry x="370" y="430" width="60" height="30" as="geometry" />
        </mxCell>
        <mxCell id="UIpKedmihriB20lezXgJ-9" value="Принадлежит" style="text;html=1;strokeColor=none;fillColor=none;align=center;verticalAlign=middle;whiteSpace=wrap;rounded=0;" parent="1" vertex="1">
          <mxGeometry x="330" y="370" width="60" height="30" as="geometry" />
        </mxCell>
        <mxCell id="UIpKedmihriB20lezXgJ-10" value="Сделан" style="text;html=1;strokeColor=none;fillColor=none;align=center;verticalAlign=middle;whiteSpace=wrap;rounded=0;" parent="1" vertex="1">
          <mxGeometry x="590" y="650" width="60" height="30" as="geometry" />
        </mxCell>
        <mxCell id="UIpKedmihriB20lezXgJ-12" value="Сделал" style="text;html=1;strokeColor=none;fillColor=none;align=center;verticalAlign=middle;whiteSpace=wrap;rounded=0;" parent="1" vertex="1">
          <mxGeometry x="590" y="600" width="60" height="30" as="geometry" />
        </mxCell>
        <mxCell id="UIpKedmihriB20lezXgJ-14" value="Входит" style="text;html=1;strokeColor=none;fillColor=none;align=center;verticalAlign=middle;whiteSpace=wrap;rounded=0;" parent="1" vertex="1">
          <mxGeometry x="510" y="500" width="60" height="30" as="geometry" />
        </mxCell>
        <mxCell id="UIpKedmihriB20lezXgJ-16" value="Содержит" style="text;html=1;strokeColor=none;fillColor=none;align=center;verticalAlign=middle;whiteSpace=wrap;rounded=0;" parent="1" vertex="1">
          <mxGeometry x="440" y="540" width="60" height="30" as="geometry" />
        </mxCell>
        <mxCell id="YNQnkvY1Ib5eSyqd-u5m-1" value="Страна" style="swimlane;childLayout=stackLayout;horizontal=1;startSize=50;horizontalStack=0;rounded=1;fontSize=14;fontStyle=0;strokeWidth=2;resizeParent=0;resizeLast=1;shadow=0;dashed=0;align=center;arcSize=4;whiteSpace=wrap;html=1;" vertex="1" parent="1">
          <mxGeometry x="580" y="920" width="160" height="150" as="geometry" />
        </mxCell>
        <mxCell id="YNQnkvY1Ib5eSyqd-u5m-2" value="&lt;span style=&quot;border-color: var(--border-color); text-align: left;&quot;&gt;&lt;b&gt;Идентификатор&lt;/b&gt;&lt;br&gt;Название&lt;br&gt;&lt;/span&gt;" style="text;html=1;strokeColor=none;fillColor=none;align=center;verticalAlign=middle;whiteSpace=wrap;rounded=0;" vertex="1" parent="YNQnkvY1Ib5eSyqd-u5m-1">
          <mxGeometry y="50" width="160" height="100" as="geometry" />
        </mxCell>
        <mxCell id="YNQnkvY1Ib5eSyqd-u5m-3" style="edgeStyle=orthogonalEdgeStyle;rounded=0;orthogonalLoop=1;jettySize=auto;html=1;exitX=0.5;exitY=1;exitDx=0;exitDy=0;entryX=0.5;entryY=0;entryDx=0;entryDy=0;startArrow=ERzeroToOne;startFill=0;endArrow=ERoneToMany;endFill=0;" edge="1" parent="1" source="mOeBLPz5S-SCBiEGiSE0-227" target="YNQnkvY1Ib5eSyqd-u5m-1">
          <mxGeometry relative="1" as="geometry" />
        </mxCell>
        <mxCell id="YNQnkvY1Ib5eSyqd-u5m-4" value="Включает" style="text;html=1;strokeColor=none;fillColor=none;align=center;verticalAlign=middle;whiteSpace=wrap;rounded=0;" vertex="1" parent="1">
          <mxGeometry x="580" y="830" width="60" height="30" as="geometry" />
        </mxCell>
        <mxCell id="YNQnkvY1Ib5eSyqd-u5m-5" value="Относится к" style="text;html=1;strokeColor=none;fillColor=none;align=center;verticalAlign=middle;whiteSpace=wrap;rounded=0;" vertex="1" parent="1">
          <mxGeometry x="570" y="890" width="70" height="30" as="geometry" />
        </mxCell>
      </root>
    </mxGraphModel>
  </diagram>
</mxfile>
